<?xml version="1.0" encoding="UTF-8"?>
<svg width="106px" height="40px" viewBox="0 0 106 40" version="1.1" xmlns="http://www.w3.org/2000/svg" xmlns:xlink="http://www.w3.org/1999/xlink">
    <!-- Generator: Sketch 51.3 (57544) - http://www.bohemiancoding.com/sketch -->
    <title>meta-logo</title>
    <desc>Created with Sketch.</desc>
    <defs></defs>
    <g id="Page-1" stroke="none" stroke-width="1" fill="none" fill-rule="evenodd">
        <g id="meta-logo" fill="#FFFFFF">
            <path d="M51.973,24.328 L53.252,26.349 C50.828,27.831 48.539,28.235 45.845,28.235 C42.075,28.235 39.516,26.686 39.516,23.587 C39.516,21.769 40.728,20.253 42.58,19.579 C40.897,18.771 39.988,17.39 39.988,16.043 C39.988,12.877 42.715,11.429 46.249,11.429 C48,11.429 50.727,11.799 53.083,13.146 L51.939,15.201 C49.986,14.325 47.899,13.921 46.451,13.921 C43.994,13.955 42.748,14.831 42.748,16.245 C42.748,17.323 43.725,18.569 46.182,18.569 L49.077,18.569 L49.077,20.792 L45.845,20.792 C43.219,20.792 42.378,22.274 42.378,23.352 C42.378,24.968 43.926,25.742 46.518,25.742 C48.438,25.742 50.155,25.372 51.973,24.328 Z M15.648,28.033 L15.648,11.631 L18.812,11.631 L24.468,21.971 L24.535,21.971 L30.225,11.631 L33.355,11.631 L33.355,28.033 L30.73,28.033 L30.73,16.245 L30.662,16.245 L25.747,25.17 L23.223,25.17 L18.34,16.28 L18.272,16.28 L18.272,28.034 L15.647,28.034 L15.648,28.033 Z M62.207,23.352 L62.207,13.988 L57.393,13.988 L57.393,11.631 L70.791,11.631 L70.791,13.988 L64.934,13.988 L64.934,22.644 C64.934,24.632 65.203,25.709 67.055,25.709 C67.886,25.709 68.628,25.479 69.295,25.172 L69.891,27.588 C68.749473,28.0249374 67.5362562,28.2443814 66.314,28.235 C63.419,28.235 62.207,26.619 62.207,23.352 Z M82.339,28.235 C77.895,28.235 74.831,24.867 74.831,19.95 C74.831,15.1 77.962,11.429 82.541,11.429 C84.965,11.429 87.156,11.933 88.331,14.223 L88.432,14.223 L88.903,11.631 L91.193,11.631 L90.418,19.613 L90.418,23.217 C90.418,24.699 90.587,25.709 91.765,25.709 C92.135,25.709 92.573,25.642 92.91,25.507 L93.213,27.764 C92.506,28.034 91.832,28.235 90.856,28.235 C89.139,28.235 88.287,26.619 88.085,25.003 C87.129,27.158 85.213,28.235 82.339,28.235 Z M88.129,19.95 C88.096,16.38 86.076,13.921 82.911,13.921 C79.948,13.921 77.626,16.312 77.626,19.95 C77.626,23.25 79.578,25.743 82.642,25.743 C85.537,25.743 87.793,23.419 88.129,19.95 Z M86.298,0 C97.179,0 106,8.954 106,20 C106,31.046 97.179,40 86.298,40 L19.702,40 C8.821,40 0,31.046 0,20 C0,8.954 8.82,0 19.702,0 L86.298,0 Z M3.028,20 C3.028,29.56 10.681,37.31 20.121,37.31 L85.879,37.31 C95.319,37.31 102.971,29.56 102.971,20 C102.971,10.44 95.319,2.69 85.879,2.69 L20.121,2.69 C10.68,2.69 3.029,10.44 3.029,20 L3.028,20 Z" id="Shape"></path>
        </g>
    </g>
</svg>