<?xml version="1.0" encoding="UTF-8"?>
<svg width="111px" height="40px" viewBox="0 0 111 40" version="1.1" xmlns="http://www.w3.org/2000/svg" xmlns:xlink="http://www.w3.org/1999/xlink">
    <!-- Generator: Sketch 51.3 (57544) - http://www.bohemiancoding.com/sketch -->
    <title>cian-logo</title>
    <desc>Created with Sketch.</desc>
    <defs></defs>
    <g id="Page-1" stroke="none" stroke-width="1" fill="none" fill-rule="evenodd">
        <g id="Artboard-Copy" transform="translate(-847.000000, -585.000000)" fill="#FFFFFF" fill-rule="nonzero">
            <g id="cian-logo" transform="translate(847.000000, 585.000000)">
                <path d="M83.458,18.741 L83.25,18.741 L74,35.918 L78.718,35.918 L79.874,33.565 L86.811,33.565 L87.967,35.918 L92.673,35.918 C89.817,30.258 86.719,24.258 83.458,18.741 Z M81.423,30.2 L83.366,25.976 L85.32,30.2 L81.423,30.2 Z M53.014,40 L48.921,40 L48.921,35.918 L34.907,35.918 L34.907,19.2 L39.277,19.2 L39.277,32.259 L45.787,32.259 L45.787,19.2 L50.158,19.2 L50.158,32.259 L53.014,32.259 L53.014,40 Z M71.618,35.918 L67.248,35.918 L67.248,26.788 L56.656,36.248 L56.298,36.248 L56.298,19.2 L60.668,19.2 L60.668,28.176 L71.19,18.776 L71.618,18.776 L71.618,35.918 Z M106.178,35.918 L106.178,29.576 L99.646,29.576 L99.646,35.918 L95.275,35.918 L95.275,19.2 L99.645,19.2 L99.645,25.918 L106.178,25.918 L106.178,19.2 L110.549,19.2 L110.549,35.918 L106.178,35.918 Z" id="Shape"></path>
                <path d="M14.72,8.565 L14.788,8.695 L19.83,17.718 L24.87,8.694 L24.94,8.553 C25.3836125,7.73153017 25.6255974,6.81637475 25.646,5.883 C25.646,3.445 24.169,1.261 21.932,0.389 C19.6910788,-0.481634793 17.1448841,0.143521956 15.562,1.953 C13.9604037,3.77952888 13.6269376,6.39504187 14.719,8.565 L14.72,8.565 Z M19.864,3.295 C20.9224332,3.29962039 21.871552,3.94780872 22.261,4.932 C22.659,5.922 22.429,7.06 21.679,7.81 C20.929,8.56 19.807,8.773 18.841,8.35 C17.8689052,7.9184442 17.2510521,6.94533537 17.274,5.882 C17.3,4.445 18.452,3.294 19.864,3.294 L19.864,3.295 Z M22.05,27.895 L25.75,31.659 L21.148,36.341 L13.043,28.082 L4.937,36.342 L0.335,31.659 L13.042,18.74 L17.691,23.458 L17.691,19.2 L22.05,19.2 L22.05,27.894 L22.05,27.895 Z" id="Shape"></path>
            </g>
        </g>
    </g>
</svg>